<mxfile host="app.diagrams.net" modified="2023-05-26T01:02:21.583Z" agent="Mozilla/5.0 (Windows NT 10.0; Win64; x64) AppleWebKit/537.36 (KHTML, like Gecko) Chrome/113.0.0.0 Safari/537.36" etag="dds5SaQDYmLucPJGn-nL" version="21.3.2" type="device">
  <diagram name="페이지-1" id="yThb50qaXdjtvXUss4X0">
    <mxGraphModel dx="1647" dy="831" grid="1" gridSize="10" guides="1" tooltips="1" connect="1" arrows="1" fold="1" page="1" pageScale="1" pageWidth="1169" pageHeight="827" math="0" shadow="0">
      <root>
        <mxCell id="0" />
        <mxCell id="1" parent="0" />
        <mxCell id="LhPqPgbhtYfmSyCLESIy-14" style="rounded=0;orthogonalLoop=1;jettySize=auto;html=1;entryX=0.5;entryY=0;entryDx=0;entryDy=0;exitX=0.5;exitY=1;exitDx=0;exitDy=0;" edge="1" parent="1" source="LhPqPgbhtYfmSyCLESIy-1" target="LhPqPgbhtYfmSyCLESIy-2">
          <mxGeometry relative="1" as="geometry" />
        </mxCell>
        <mxCell id="LhPqPgbhtYfmSyCLESIy-15" style="edgeStyle=none;shape=connector;rounded=0;orthogonalLoop=1;jettySize=auto;html=1;entryX=0.5;entryY=0;entryDx=0;entryDy=0;labelBackgroundColor=default;strokeColor=default;fontFamily=Helvetica;fontSize=11;fontColor=default;endArrow=classic;exitX=0.5;exitY=1;exitDx=0;exitDy=0;" edge="1" parent="1" source="LhPqPgbhtYfmSyCLESIy-1" target="LhPqPgbhtYfmSyCLESIy-3">
          <mxGeometry relative="1" as="geometry" />
        </mxCell>
        <mxCell id="LhPqPgbhtYfmSyCLESIy-16" style="edgeStyle=none;shape=connector;rounded=0;orthogonalLoop=1;jettySize=auto;html=1;labelBackgroundColor=default;strokeColor=default;fontFamily=Helvetica;fontSize=11;fontColor=default;endArrow=classic;" edge="1" parent="1" source="LhPqPgbhtYfmSyCLESIy-1" target="LhPqPgbhtYfmSyCLESIy-5">
          <mxGeometry relative="1" as="geometry" />
        </mxCell>
        <mxCell id="LhPqPgbhtYfmSyCLESIy-17" style="edgeStyle=none;shape=connector;rounded=0;orthogonalLoop=1;jettySize=auto;html=1;entryX=0.5;entryY=0;entryDx=0;entryDy=0;labelBackgroundColor=default;strokeColor=default;fontFamily=Helvetica;fontSize=11;fontColor=default;endArrow=classic;exitX=0.5;exitY=1;exitDx=0;exitDy=0;" edge="1" parent="1" source="LhPqPgbhtYfmSyCLESIy-1" target="LhPqPgbhtYfmSyCLESIy-6">
          <mxGeometry relative="1" as="geometry" />
        </mxCell>
        <mxCell id="LhPqPgbhtYfmSyCLESIy-18" style="edgeStyle=none;shape=connector;rounded=0;orthogonalLoop=1;jettySize=auto;html=1;entryX=0.5;entryY=0;entryDx=0;entryDy=0;labelBackgroundColor=default;strokeColor=default;fontFamily=Helvetica;fontSize=11;fontColor=default;endArrow=classic;exitX=0.5;exitY=1;exitDx=0;exitDy=0;" edge="1" parent="1" source="LhPqPgbhtYfmSyCLESIy-1" target="LhPqPgbhtYfmSyCLESIy-4">
          <mxGeometry relative="1" as="geometry" />
        </mxCell>
        <mxCell id="LhPqPgbhtYfmSyCLESIy-1" value="학생정보" style="rounded=1;arcSize=10;whiteSpace=wrap;html=1;align=center;" vertex="1" parent="1">
          <mxGeometry x="340" y="70" width="100" height="40" as="geometry" />
        </mxCell>
        <mxCell id="LhPqPgbhtYfmSyCLESIy-2" value="학번" style="ellipse;whiteSpace=wrap;html=1;align=center;fontStyle=4;" vertex="1" parent="1">
          <mxGeometry x="80" y="220" width="100" height="40" as="geometry" />
        </mxCell>
        <mxCell id="LhPqPgbhtYfmSyCLESIy-3" value="이름" style="ellipse;whiteSpace=wrap;html=1;align=center;" vertex="1" parent="1">
          <mxGeometry x="220" y="220" width="100" height="40" as="geometry" />
        </mxCell>
        <mxCell id="LhPqPgbhtYfmSyCLESIy-4" value="전화번호" style="ellipse;whiteSpace=wrap;html=1;align=center;" vertex="1" parent="1">
          <mxGeometry x="600" y="220" width="100" height="40" as="geometry" />
        </mxCell>
        <mxCell id="LhPqPgbhtYfmSyCLESIy-5" value="학과" style="ellipse;whiteSpace=wrap;html=1;align=center;" vertex="1" parent="1">
          <mxGeometry x="343" y="220" width="100" height="40" as="geometry" />
        </mxCell>
        <mxCell id="LhPqPgbhtYfmSyCLESIy-6" value="학년" style="ellipse;whiteSpace=wrap;html=1;align=center;" vertex="1" parent="1">
          <mxGeometry x="470" y="220" width="100" height="40" as="geometry" />
        </mxCell>
      </root>
    </mxGraphModel>
  </diagram>
</mxfile>
